<?xml version="1.0" encoding="iso-8859-1"?>
<!DOCTYPE svg PUBLIC "-//W3C//DTD SVG 1.1//EN" "http://www.w3.org/Graphics/SVG/1.1/DTD/svg11.dtd">
<svg version="1.1" id="Capa_1" xmlns="http://www.w3.org/2000/svg" xmlns:xlink="http://www.w3.org/1999/xlink" x="0px" y="0px"
	 width="527.164px" height="527.164px" viewBox="0 0 527.164 527.164" style="enable-background:new 0 0 527.164 527.164;"
	 xml:space="preserve">
<g>
	<g>
		<path d="M428.32,0.006H98.844c-27.228,0-50.508,9.664-69.841,28.997C9.663,48.335,0,71.622,0,98.85v329.476
			c0,27.228,9.663,50.515,29.002,69.836c19.333,19.333,42.614,28.996,69.841,28.996H428.32c27.228,0,50.502-9.663,69.842-28.996
			c19.333-19.321,29.002-42.607,29.002-69.836V98.85c0-27.228-9.669-50.515-29.002-69.848C478.822,9.669,455.542,0.006,428.32,0.006
			z M162.853,426.436c-8.581,8.58-18.936,12.87-31.059,12.87c-12.13,0-22.479-4.29-31.059-12.87
			c-8.58-8.58-12.87-18.93-12.87-31.065c0-12.117,4.29-22.485,12.87-31.065c8.581-8.58,18.929-12.87,31.059-12.87
			c12.124,0,22.479,4.29,31.059,12.87c8.58,8.58,12.87,18.941,12.87,31.065C175.723,407.506,171.433,417.855,162.853,426.436z
			 M293.099,435.872c-2.289,2.295-4.92,3.434-7.895,3.434h-43.93c-2.974,0-5.489-0.967-7.552-2.926
			c-2.057-1.946-3.207-4.4-3.434-7.374c-2.521-35.233-16.358-65.436-41.53-90.613c-25.171-25.153-55.374-38.996-90.606-41.518
			c-2.975-0.227-5.441-1.383-7.381-3.434c-1.946-2.062-2.919-4.571-2.919-7.546V241.96c0-2.974,1.144-5.606,3.433-7.895
			c2.283-2.277,5.031-3.311,8.238-3.084c53.079,2.974,98.379,23.219,135.907,60.747c37.522,37.522,57.773,82.822,60.747,135.901
			C296.41,430.848,295.382,433.583,293.099,435.872z M424.887,435.872c-2.289,2.295-4.92,3.434-7.895,3.434h-43.93
			c-2.975,0-5.489-1.034-7.552-3.097c-2.057-2.051-3.207-4.56-3.434-7.546c-1.604-46.665-14.357-89.915-38.269-129.731
			c-23.91-39.805-55.771-71.66-95.582-95.577c-39.811-23.905-83.054-36.665-129.731-38.274c-2.975-0.214-5.49-1.365-7.552-3.433
			c-2.056-2.05-3.09-4.56-3.09-7.546v-43.936c0-2.962,1.145-5.594,3.433-7.883c2.056-2.295,4.688-3.323,7.895-3.097
			c35.232,1.15,69.266,7.546,102.106,19.223c32.828,11.665,62.577,27.631,89.236,47.876c26.652,20.245,50.104,43.703,70.355,70.355
			c20.251,26.665,36.206,56.402,47.877,89.236c11.671,32.846,18.072,66.873,19.223,102.105
			C428.431,431.178,427.402,433.81,424.887,435.872z"/>
	</g>
</g>
<g>
</g>
<g>
</g>
<g>
</g>
<g>
</g>
<g>
</g>
<g>
</g>
<g>
</g>
<g>
</g>
<g>
</g>
<g>
</g>
<g>
</g>
<g>
</g>
<g>
</g>
<g>
</g>
<g>
</g>
</svg>
